<svg width="188" height="188" viewBox="0 0 188 188" fill="none" xmlns="http://www.w3.org/2000/svg">
<path d="M5.038 97.431C5 97.297 5 97.183 5 97.089C5 96.879 5.076 96.783 5.229 96.783C5.553 96.783 5.553 97.335 6.01 98.249C6.6 99.448 7.856 100.172 9.321 100.172C11.281 100.172 12.499 98.992 12.499 97.278C12.499 95.603 11.435 95.032 9.341 94.424C6.675 93.644 5.419 92.749 5.419 90.599C5.419 88.6 7.037 87.117 9.607 87.117C11.091 87.117 11.949 87.706 12.214 87.706C12.442 87.706 12.613 87.496 12.728 87.496C12.785 87.496 12.842 87.592 12.861 87.764L13.129 90.086C13.147 90.182 13.147 90.257 13.147 90.333C13.147 90.505 13.09 90.6 12.918 90.6C12.557 90.6 12.633 90.105 12.215 89.457C11.434 88.221 10.578 87.687 9.228 87.687C7.59 87.687 6.411 88.695 6.411 90.046C6.411 91.588 7.42 91.987 9.21 92.56C10.541 92.978 11.607 93.321 12.273 93.93C13.11 94.691 13.491 95.643 13.491 96.879C13.491 99.258 11.779 100.858 8.809 100.858C6.924 100.858 5.592 100.248 5.459 99.564L5.038 97.431Z" fill="#414042"/>
<path d="M29.449 100.661C29.638 100.667 29.723 100.611 29.723 100.457C29.723 100.165 29.398 100.269 29.107 100.148C28.677 99.976 28.472 99.702 28.472 99.394C28.472 99.137 28.576 98.864 28.73 98.521L29.569 96.705C29.757 96.294 29.879 96.071 30.34 96.071H34.194C34.638 96.071 34.776 96.208 34.93 96.602L35.822 98.914C35.941 99.204 35.992 99.411 35.992 99.564C35.992 99.872 35.804 100.027 35.428 100.164C35.188 100.249 35.033 100.268 35.033 100.473C35.033 100.559 35.119 100.679 35.221 100.679C35.375 100.679 35.888 100.558 36.814 100.558C37.876 100.558 38.544 100.661 38.784 100.661C38.938 100.661 39.007 100.61 39.007 100.456C39.007 100.165 38.613 100.268 38.219 100.097C37.67 99.873 37.362 99.326 37.037 98.486L33.148 88.586C33.08 88.415 33.045 88.312 32.925 88.312C32.787 88.312 32.737 88.381 32.652 88.552L27.907 98.693C27.616 99.291 27.342 99.715 27.015 99.994C26.76 100.212 26.566 100.212 26.29 100.098C25.743 99.872 25.434 99.327 25.108 98.488L21.22 88.587C21.151 88.416 21.117 88.313 20.997 88.313C20.859 88.313 20.809 88.382 20.724 88.553L15.98 98.69C15.689 99.288 15.431 99.735 15.089 99.991C14.798 100.214 14.403 100.197 14.403 100.437C14.403 100.557 14.507 100.659 14.608 100.659C14.78 100.659 15.106 100.557 15.568 100.557C16.528 100.557 17.195 100.659 17.521 100.659C17.709 100.659 17.795 100.608 17.795 100.454C17.795 100.163 17.47 100.266 17.178 100.145C16.749 99.973 16.544 99.7 16.544 99.391C16.544 99.134 16.647 98.861 16.801 98.518L17.641 96.702C17.829 96.291 17.949 96.068 18.412 96.068H22.266C22.711 96.068 22.848 96.206 23.003 96.6L23.893 98.912C24.013 99.202 24.065 99.409 24.065 99.562C24.065 99.87 23.876 100.025 23.501 100.163C23.26 100.247 23.106 100.266 23.106 100.471C23.106 100.558 23.191 100.683 23.294 100.677C24.391 100.614 25.394 100.545 26.466 100.545C27.512 100.548 29.076 100.653 29.449 100.661ZM22.045 95.386H18.774C18.482 95.386 18.345 95.319 18.345 95.165C18.345 95.078 18.379 94.976 18.448 94.855L20.298 90.899C20.368 90.762 20.453 90.711 20.521 90.711C20.591 90.711 20.676 90.78 20.728 90.916L22.287 94.924C22.338 95.062 22.373 95.148 22.373 95.216C22.369 95.318 22.25 95.386 22.045 95.386ZM33.972 95.386H30.7C30.41 95.386 30.272 95.319 30.272 95.165C30.272 95.078 30.306 94.976 30.375 94.855L32.226 90.899C32.294 90.762 32.379 90.711 32.449 90.711C32.516 90.711 32.603 90.78 32.654 90.916L34.214 94.924C34.265 95.062 34.3 95.148 34.3 95.216C34.297 95.318 34.177 95.386 33.972 95.386Z" fill="#414042"/>
<path d="M43.038 89.854C43.038 89.528 42.918 89.426 42.559 89.426H40.178C39.545 89.426 39.184 89.734 38.893 90.403C38.705 90.865 38.74 91.242 38.465 91.242C38.328 91.242 38.295 91.173 38.295 91.019C38.295 90.951 38.295 90.847 38.312 90.728L38.5 88.998C38.534 88.655 38.654 88.639 39.064 88.639C39.441 88.639 40.109 88.743 41.085 88.743H46.429C47.509 88.743 48.245 88.639 48.622 88.639C48.862 88.639 48.964 88.724 48.981 88.93L49.101 90.489V90.609C49.101 90.814 49.049 90.934 48.895 90.934C48.586 90.934 48.707 90.489 48.519 90.128C48.295 89.7 47.799 89.427 47.131 89.427H44.904C44.509 89.427 44.373 89.513 44.373 89.871V98.556C44.373 99.412 44.406 99.738 45.023 100.012C45.588 100.269 45.965 100.132 45.965 100.441C45.965 100.613 45.845 100.697 45.588 100.697C45.091 100.697 44.441 100.578 43.636 100.578C42.659 100.578 42.025 100.732 41.735 100.732C41.529 100.732 41.41 100.645 41.41 100.492C41.41 100.115 41.959 100.251 42.421 100.047C43.037 99.773 43.037 99.396 43.037 98.488L43.038 89.854Z" fill="#414042"/>
<path d="M56.005 100.884C52.391 100.884 50.182 98.555 50.182 94.839C50.182 92.938 50.798 91.327 51.946 90.111C52.991 88.997 54.361 88.466 56.091 88.466C57.136 88.466 58.061 88.671 58.969 89.082C59.585 89.356 59.927 89.75 60.167 89.75C60.304 89.75 60.441 89.596 60.562 89.596C60.665 89.596 60.715 89.715 60.734 89.939L60.904 91.719C60.922 91.857 60.922 91.959 60.922 92.062C60.922 92.25 60.888 92.353 60.734 92.353C60.425 92.353 60.375 91.823 60.048 91.291C59.071 89.75 57.65 88.928 56.109 88.928C53.47 88.928 51.604 91 51.604 94.135C51.604 97.818 53.625 100.283 56.28 100.283C57.496 100.283 58.746 99.787 59.672 98.914C60.339 98.28 60.443 97.596 60.734 97.596C60.819 97.596 60.887 97.699 60.887 97.834C60.887 97.869 60.869 97.972 60.835 98.108L60.492 99.513C59.259 100.439 57.786 100.884 56.005 100.884Z" fill="#414042"/>
<path d="M64.038 90.916C64.038 90.18 64.004 89.734 63.508 89.374C63.028 89.032 62.479 89.221 62.479 88.895C62.479 88.69 62.583 88.638 62.839 88.638C63.164 88.638 63.746 88.742 64.586 88.742C65.75 88.742 66.35 88.638 66.47 88.638C66.641 88.638 66.744 88.742 66.744 88.861C66.744 89.204 66.179 89.101 65.767 89.443C65.373 89.786 65.357 90.214 65.357 90.917V93.538C65.357 93.932 65.424 93.967 65.801 93.967H71.488C71.866 93.967 71.951 93.932 71.951 93.538V90.934C71.951 90.197 71.916 89.751 71.42 89.392C70.941 89.05 70.393 89.221 70.393 88.895C70.393 88.69 70.497 88.656 70.753 88.656C71.215 88.656 71.85 88.759 72.654 88.759C73.681 88.759 74.263 88.656 74.383 88.656C74.554 88.656 74.657 88.759 74.657 88.879C74.657 89.221 74.092 89.102 73.68 89.443C73.285 89.786 73.268 90.214 73.268 90.917V98.351C73.268 99.122 73.336 99.602 73.817 99.961C74.28 100.304 74.827 100.099 74.827 100.459C74.827 100.663 74.725 100.697 74.468 100.697C73.919 100.697 73.304 100.595 72.618 100.595C71.573 100.595 70.956 100.697 70.819 100.697C70.648 100.697 70.563 100.613 70.563 100.474C70.563 100.15 71.059 100.218 71.487 99.841C71.932 99.446 71.95 99.019 71.95 98.334V95.011C71.95 94.703 71.813 94.652 71.487 94.652H65.8C65.475 94.652 65.356 94.704 65.356 95.011V98.351C65.356 99.122 65.423 99.602 65.903 99.961C66.366 100.304 66.915 100.099 66.915 100.459C66.915 100.663 66.811 100.698 66.556 100.698C66.007 100.698 65.39 100.594 64.704 100.594C63.659 100.594 63.059 100.698 62.923 100.698C62.751 100.698 62.65 100.613 62.65 100.475C62.65 100.149 63.147 100.217 63.575 99.84C64.021 99.447 64.038 99.018 64.038 98.334V90.916Z" fill="#414042"/>
<path d="M77.998 90.916C77.998 90.18 77.964 89.734 77.484 89.374C77.021 89.015 76.507 89.237 76.507 88.861C76.507 88.69 76.611 88.638 76.849 88.638C77.124 88.638 77.706 88.742 78.563 88.742C79.728 88.742 80.344 88.638 80.464 88.638C80.636 88.638 80.737 88.742 80.737 88.861C80.737 89.204 80.155 89.1 79.744 89.443C79.35 89.786 79.35 90.214 79.35 90.917V98.351C79.35 99.122 79.402 99.602 79.881 99.961C80.344 100.304 80.891 100.099 80.891 100.459C80.891 100.663 80.789 100.698 80.532 100.698C79.985 100.698 79.384 100.594 78.682 100.594C77.62 100.594 77.02 100.698 76.883 100.698C76.713 100.698 76.61 100.613 76.61 100.475C76.61 100.149 77.106 100.217 77.536 99.84C77.981 99.447 77.998 99.018 77.998 98.334V90.916Z" fill="#414042"/>
<path d="M92.611 100.78C89.549 100.78 87.396 98.707 87.396 95.794C87.396 93.815 88.578 92.482 90.578 91.911C90.026 91.187 89.74 90.521 89.74 89.799C89.74 88.333 90.939 87.267 92.652 87.267C93.87 87.267 94.517 87.724 94.727 87.724C94.88 87.724 95.032 87.553 95.165 87.553C95.299 87.553 95.337 87.704 95.355 88.029L95.431 89.666V89.723C95.431 89.933 95.336 90.047 95.222 90.047C94.954 90.047 94.954 89.59 94.613 89.096C94.003 88.2 93.242 87.743 92.367 87.743C91.453 87.743 90.844 88.353 90.844 89.247C90.844 90.503 93.166 92.996 97.658 97.24C98.039 96.708 98.199 96.354 98.273 96.035C98.538 94.917 98.176 94.656 97.43 94.329C96.977 94.131 96.402 94.253 96.402 93.93C96.402 93.739 96.574 93.701 96.897 93.701C97.164 93.701 97.832 93.787 98.573 93.776C99.567 93.761 100.603 93.584 100.632 93.88C100.685 94.434 99.258 94.173 99.119 95.032C98.998 95.776 99.164 96.23 98.192 97.715C99.905 99.199 100.951 100.018 101.542 100.018C101.828 100.018 102.037 99.885 102.189 99.885C102.303 99.885 102.378 99.98 102.378 100.075C102.378 100.342 101.788 100.741 100.857 100.741C99.734 100.741 98.707 100.037 97.259 98.857C95.927 100.19 94.383 100.78 92.611 100.78ZM92.424 94.138C91.548 93.111 91.072 92.464 90.597 92.464C89.684 92.464 88.445 93.511 88.445 95.032C88.445 96.079 88.921 97.203 89.815 98.096C90.786 99.085 92.079 99.618 93.411 99.618C94.593 99.618 95.832 99.219 96.764 98.439C94.746 96.65 93.318 95.185 92.424 94.138Z" fill="#414042"/>
<path d="M107.147 97.431C107.109 97.297 107.109 97.183 107.109 97.089C107.109 96.879 107.184 96.783 107.338 96.783C107.66 96.783 107.66 97.335 108.118 98.249C108.708 99.448 109.964 100.172 111.43 100.172C113.39 100.172 114.609 98.992 114.609 97.278C114.609 95.603 113.544 95.032 111.45 94.424C108.784 93.644 107.53 92.749 107.53 90.599C107.53 88.6 109.147 87.117 111.717 87.117C113.202 87.117 114.058 87.706 114.324 87.706C114.553 87.706 114.723 87.496 114.838 87.496C114.896 87.496 114.952 87.592 114.972 87.764L115.238 90.086C115.258 90.182 115.258 90.257 115.258 90.333C115.258 90.505 115.201 90.6 115.029 90.6C114.668 90.6 114.743 90.105 114.325 89.457C113.545 88.221 112.688 87.687 111.338 87.687C109.701 87.687 108.52 88.695 108.52 90.046C108.52 91.588 109.529 91.987 111.319 92.56C112.652 92.978 113.716 93.321 114.383 93.93C115.221 94.691 115.601 95.643 115.601 96.879C115.601 99.258 113.888 100.858 110.919 100.858C109.034 100.858 107.702 100.248 107.569 99.564L107.147 97.431Z" fill="#414042"/>
<path d="M131.559 100.661C131.748 100.667 131.832 100.611 131.832 100.457C131.832 100.165 131.508 100.269 131.217 100.148C130.787 99.976 130.582 99.702 130.582 99.394C130.582 99.137 130.686 98.864 130.84 98.521L131.679 96.705C131.867 96.294 131.989 96.071 132.451 96.071H136.305C136.75 96.071 136.887 96.208 137.041 96.602L137.932 98.914C138.053 99.204 138.104 99.411 138.104 99.564C138.104 99.872 137.916 100.027 137.539 100.164C137.3 100.249 137.144 100.268 137.144 100.473C137.144 100.559 137.231 100.679 137.332 100.679C137.487 100.679 138 100.558 138.926 100.558C139.988 100.558 140.656 100.661 140.896 100.661C141.05 100.661 141.119 100.61 141.119 100.456C141.119 100.165 140.724 100.268 140.331 100.097C139.782 99.873 139.475 99.326 139.148 98.486L135.261 88.586C135.192 88.415 135.158 88.312 135.037 88.312C134.9 88.312 134.848 88.381 134.764 88.552L130.02 98.691C129.728 99.289 129.454 99.713 129.128 99.992C128.873 100.21 128.678 100.21 128.403 100.096C127.856 99.87 127.547 99.325 127.221 98.486L123.333 88.585C123.263 88.414 123.229 88.311 123.108 88.311C122.972 88.311 122.92 88.38 122.835 88.551L118.092 98.69C117.801 99.288 117.543 99.735 117.201 99.991C116.911 100.214 116.516 100.197 116.516 100.437C116.516 100.557 116.619 100.659 116.722 100.659C116.892 100.659 117.218 100.557 117.681 100.557C118.64 100.557 119.308 100.659 119.634 100.659C119.822 100.659 119.907 100.608 119.907 100.454C119.907 100.163 119.581 100.266 119.291 100.145C118.862 99.973 118.657 99.7 118.657 99.391C118.657 99.134 118.76 98.861 118.914 98.518L119.753 96.702C119.941 96.291 120.062 96.068 120.524 96.068H124.378C124.823 96.068 124.96 96.206 125.114 96.6L126.005 98.912C126.125 99.202 126.177 99.409 126.177 99.562C126.177 99.87 125.988 100.025 125.613 100.163C125.373 100.247 125.218 100.266 125.218 100.471C125.218 100.558 125.303 100.683 125.406 100.677C126.504 100.614 127.506 100.545 128.578 100.545C129.621 100.548 131.186 100.653 131.559 100.661ZM124.154 95.386H120.883C120.592 95.386 120.455 95.319 120.455 95.165C120.455 95.078 120.489 94.976 120.558 94.855L122.409 90.899C122.477 90.762 122.563 90.711 122.63 90.711C122.7 90.711 122.786 90.78 122.837 90.916L124.396 94.924C124.447 95.062 124.482 95.148 124.482 95.216C124.479 95.318 124.359 95.386 124.154 95.386ZM136.081 95.386H132.809C132.518 95.386 132.382 95.319 132.382 95.165C132.382 95.078 132.416 94.976 132.484 94.855L134.336 90.899C134.403 90.762 134.489 90.711 134.559 90.711C134.626 90.711 134.712 90.78 134.763 90.916L136.322 94.924C136.375 95.062 136.409 95.148 136.409 95.216C136.406 95.318 136.286 95.386 136.081 95.386Z" fill="#414042"/>
<path d="M145.147 89.854C145.147 89.528 145.027 89.426 144.668 89.426H142.286C141.652 89.426 141.293 89.734 141.002 90.403C140.814 90.865 140.848 91.242 140.574 91.242C140.437 91.242 140.402 91.173 140.402 91.019C140.402 90.951 140.402 90.847 140.42 90.728L140.609 88.998C140.642 88.655 140.763 88.639 141.173 88.639C141.55 88.639 142.218 88.743 143.194 88.743H148.538C149.618 88.743 150.353 88.639 150.73 88.639C150.971 88.639 151.073 88.724 151.088 88.93L151.21 90.489V90.609C151.21 90.814 151.158 90.934 151.004 90.934C150.697 90.934 150.816 90.489 150.627 90.128C150.404 89.7 149.907 89.427 149.24 89.427H147.013C146.618 89.427 146.482 89.513 146.482 89.871V98.556C146.482 99.412 146.515 99.738 147.132 100.012C147.698 100.269 148.075 100.132 148.075 100.441C148.075 100.613 147.954 100.697 147.697 100.697C147.2 100.697 146.549 100.578 145.745 100.578C144.767 100.578 144.134 100.732 143.843 100.732C143.639 100.732 143.518 100.645 143.518 100.492C143.518 100.115 144.067 100.251 144.529 100.047C145.146 99.773 145.146 99.396 145.146 98.488L145.147 89.854Z" fill="#414042"/>
<path d="M158.114 100.884C154.5 100.884 152.289 98.555 152.289 94.839C152.289 92.938 152.906 91.327 154.054 90.111C155.1 88.997 156.469 88.466 158.2 88.466C159.244 88.466 160.169 88.671 161.076 89.082C161.693 89.356 162.035 89.75 162.276 89.75C162.414 89.75 162.55 89.596 162.671 89.596C162.774 89.596 162.824 89.715 162.842 89.939L163.014 91.719C163.03 91.857 163.03 91.959 163.03 92.062C163.03 92.25 162.997 92.353 162.842 92.353C162.533 92.353 162.483 91.823 162.156 91.291C161.179 89.75 159.758 88.928 158.217 88.928C155.578 88.928 153.712 91 153.712 94.135C153.712 97.818 155.733 100.283 158.388 100.283C159.604 100.283 160.854 99.787 161.78 98.914C162.448 98.28 162.552 97.596 162.842 97.596C162.927 97.596 162.996 97.699 162.996 97.834C162.996 97.869 162.978 97.972 162.945 98.108L162.601 99.513C161.369 100.439 159.896 100.884 158.114 100.884Z" fill="#414042"/>
<path d="M166.146 90.916C166.146 90.18 166.113 89.734 165.617 89.374C165.137 89.032 164.588 89.221 164.588 88.895C164.588 88.69 164.692 88.638 164.949 88.638C165.273 88.638 165.857 88.742 166.695 88.742C167.86 88.742 168.46 88.638 168.58 88.638C168.75 88.638 168.853 88.742 168.853 88.861C168.853 89.204 168.288 89.101 167.876 89.443C167.481 89.786 167.466 90.214 167.466 90.917V93.538C167.466 93.932 167.533 93.967 167.911 93.967H173.598C173.975 93.967 174.06 93.932 174.06 93.538V90.934C174.06 90.197 174.027 89.751 173.529 89.392C173.05 89.05 172.502 89.221 172.502 88.895C172.502 88.69 172.606 88.656 172.863 88.656C173.324 88.656 173.959 88.759 174.763 88.759C175.79 88.759 176.372 88.656 176.493 88.656C176.663 88.656 176.765 88.759 176.765 88.879C176.765 89.221 176.201 89.102 175.789 89.443C175.394 89.786 175.377 90.214 175.377 90.917V98.351C175.377 99.122 175.446 99.602 175.926 99.961C176.389 100.304 176.936 100.099 176.936 100.459C176.936 100.663 176.834 100.697 176.578 100.697C176.028 100.697 175.413 100.595 174.727 100.595C173.681 100.595 173.066 100.697 172.928 100.697C172.757 100.697 172.672 100.613 172.672 100.474C172.672 100.15 173.168 100.218 173.596 99.841C174.041 99.446 174.059 99.019 174.059 98.334V95.011C174.059 94.703 173.922 94.652 173.596 94.652H167.909C167.583 94.652 167.463 94.704 167.463 95.011V98.351C167.463 99.122 167.531 99.602 168.012 99.961C168.474 100.304 169.022 100.099 169.022 100.459C169.022 100.663 168.92 100.698 168.663 100.698C168.114 100.698 167.498 100.594 166.813 100.594C165.768 100.594 165.168 100.698 165.032 100.698C164.86 100.698 164.759 100.613 164.759 100.475C164.759 100.149 165.255 100.217 165.683 99.84C166.128 99.447 166.145 99.018 166.145 98.334L166.146 90.916Z" fill="#414042"/>
<path d="M180.107 90.916C180.107 90.18 180.071 89.734 179.592 89.374C179.128 89.015 178.614 89.237 178.614 88.861C178.614 88.69 178.718 88.638 178.958 88.638C179.229 88.638 179.813 88.742 180.669 88.742C181.835 88.742 182.451 88.638 182.569 88.638C182.741 88.638 182.843 88.742 182.843 88.861C182.843 89.204 182.261 89.1 181.85 89.443C181.457 89.786 181.457 90.214 181.457 90.917V98.351C181.457 99.122 181.51 99.602 181.987 99.961C182.45 100.304 182.998 100.099 182.998 100.459C182.998 100.663 182.894 100.698 182.638 100.698C182.09 100.698 181.491 100.594 180.788 100.594C179.726 100.594 179.125 100.698 178.989 100.698C178.818 100.698 178.716 100.613 178.716 100.475C178.716 100.149 179.212 100.217 179.641 99.84C180.087 99.447 180.104 99.018 180.104 98.334V90.915H180.107V90.916Z" fill="#414042"/>
</svg>
