<svg width="188" height="188" viewBox="0 0 188 188" fill="none" xmlns="http://www.w3.org/2000/svg">
<g clip-path="url(#clip0_2_1187)">
<path d="M100.685 112.48L95.623 106.155H22V81.562C22 78.231 24.71 75.52 28.042 75.52H166V100.114C166 103.447 163.289 106.156 159.958 106.156H105.652L100.685 112.48ZM23.574 104.583H96.38L100.673 109.948L104.889 104.583H159.959C162.425 104.583 164.429 102.578 164.429 100.114V77.093H28.043C25.578 77.093 23.574 79.098 23.574 81.562V104.583Z" fill="#414042"/>
<path d="M41.977 90.654C41.965 93.196 40.511 94.773 38.182 94.773C35.865 94.773 34.219 93.163 34.219 90.89C34.219 88.537 35.877 86.927 38.306 86.927C39.604 86.927 40.567 87.42 41.474 88.55L40.287 89.525C39.773 88.752 39.066 88.35 38.239 88.35C36.861 88.35 35.877 89.39 35.877 90.845C35.877 92.301 36.885 93.352 38.261 93.352C39.179 93.352 39.807 92.938 40.287 92.009H38.698V90.654H41.977Z" fill="#414042"/>
<path d="M47.134 87.118C48.532 87.118 49.463 87.98 49.463 89.266C49.463 90.295 48.971 90.956 48.018 91.191L49.955 94.585H48.109L46.452 91.349V94.585H44.829V87.118H47.134ZM46.696 90.297C47.467 90.297 47.861 89.973 47.861 89.345C47.861 89.067 47.705 88.775 47.467 88.629C47.279 88.519 47.12 88.483 46.673 88.483H46.45V90.296H46.696V90.297Z" fill="#414042"/>
<path d="M56.857 87.118V88.473H54.272V90.074H56.857V91.429H54.272V93.229H56.857V94.585H52.649V87.118H56.857Z" fill="#414042"/>
<path d="M61.311 87.118L64.568 91.606C64.659 91.728 64.635 91.695 64.781 91.908C64.927 92.11 64.903 92.087 64.993 92.232C64.982 91.773 64.982 91.773 64.982 91.728L64.971 91.561V91.404V91.237L64.96 91.171V91.093V91.014V87.118H66.582V94.585H64.992L61.734 90.218C61.725 90.197 61.701 90.163 61.656 90.107C61.635 90.064 61.578 89.984 61.511 89.882C61.421 89.749 61.386 89.715 61.309 89.57C61.32 89.927 61.32 89.917 61.32 90.119L61.332 90.251C61.344 90.745 61.344 90.823 61.344 90.855V94.584H59.72V87.115H61.311V87.118Z" fill="#414042"/>
<path d="M75.906 94.585H74.271L73.779 92.96H71.205L70.688 94.585H69.043L71.651 87.118H73.308L75.906 94.585ZM72.739 89.837C72.636 89.535 72.525 89.077 72.481 88.775C72.436 89.067 72.312 89.605 72.221 89.908L71.651 91.709H73.331L72.739 89.837Z" fill="#414042"/>
<path d="M80.604 87.118C81.657 87.118 82.305 87.253 82.865 87.577C83.884 88.158 84.523 89.435 84.523 90.855C84.523 92.176 83.929 93.385 82.979 93.99C82.361 94.391 81.556 94.585 80.548 94.585H78.298V87.116H80.604V87.118ZM80.627 93.229C81.981 93.229 82.876 92.289 82.876 90.866C82.876 89.446 81.98 88.471 80.649 88.471H79.921V93.228L80.627 93.229Z" fill="#414042"/>
<path d="M91.583 87.118V88.473H88.999V90.074H91.583V91.429H88.999V93.229H91.583V94.585H87.374V87.118H91.583Z" fill="#414042"/>
<path d="M105.201 91.675L104.095 92.851L105.606 94.585H103.759L103.088 93.8C102.225 94.529 101.799 94.719 101.062 94.719C99.752 94.719 98.756 93.825 98.756 92.637C98.756 91.809 99.113 91.239 100.179 90.377C99.73 89.837 99.517 89.345 99.517 88.809C99.517 87.846 100.38 87.119 101.522 87.119C102.607 87.119 103.38 87.777 103.38 88.708C103.38 89.424 103.099 89.838 102.136 90.589L103.245 91.854L104.273 90.668L105.201 91.675ZM100.948 91.371C100.893 91.416 100.859 91.438 100.837 91.461C100.32 91.898 100.198 92.087 100.198 92.412C100.198 92.916 100.691 93.431 101.16 93.431C101.485 93.431 101.844 93.25 102.268 92.882L100.948 91.371ZM102.044 88.707C102.044 88.371 101.799 88.113 101.474 88.113C101.106 88.113 100.826 88.416 100.826 88.808C100.826 88.975 100.882 89.143 101.006 89.323C101.072 89.413 101.152 89.501 101.231 89.58C101.297 89.636 101.341 89.681 101.341 89.681C101.799 89.436 102.044 89.099 102.044 88.707Z" fill="#414042"/>
<path d="M115.954 89.146C115.585 88.551 115.306 88.351 114.892 88.351C114.433 88.351 114.084 88.663 114.084 89.088C114.084 89.302 114.175 89.526 114.318 89.648C114.474 89.794 114.576 89.849 115.214 90.129C115.93 90.453 116.277 90.667 116.535 90.957C116.846 91.304 117.039 91.829 117.039 92.378C117.039 93.755 115.951 94.773 114.474 94.773C113.614 94.773 112.774 94.359 112.203 93.665L113.155 92.346C113.536 93.039 113.95 93.353 114.465 93.353C115.001 93.353 115.44 92.939 115.44 92.435C115.44 92.188 115.327 91.964 115.126 91.818C114.971 91.707 114.947 91.695 114.319 91.404C112.988 90.8 112.484 90.196 112.484 89.177C112.484 87.911 113.557 86.927 114.923 86.927C115.785 86.927 116.446 87.24 117.006 87.91L115.954 89.146Z" fill="#414042"/>
<path d="M122.119 87.118C123.452 87.118 124.336 88.002 124.336 89.345C124.336 90.777 123.308 91.774 121.816 91.774H121.461V94.586H119.836V87.117H122.119V87.118ZM121.705 90.419C122.32 90.419 122.747 90.005 122.747 89.423C122.747 88.841 122.354 88.484 121.727 88.484H121.458V90.42H121.705V90.419Z" fill="#414042"/>
<path d="M132.673 94.585H131.038L130.546 92.96H127.972L127.457 94.585H125.811L128.419 87.118H130.073L132.673 94.585ZM129.506 89.837C129.403 89.535 129.293 89.077 129.248 88.775C129.203 89.067 129.08 89.605 128.99 89.908L128.42 91.709H130.1L129.506 89.837Z" fill="#414042"/>
<path d="M137.372 87.118C138.771 87.118 139.7 87.98 139.7 89.266C139.7 90.295 139.209 90.956 138.257 91.191L140.193 94.585H138.347L136.69 91.349V94.585H135.066V87.118H137.372ZM136.936 90.297C137.707 90.297 138.1 89.973 138.1 89.345C138.1 89.067 137.945 88.775 137.707 88.629C137.519 88.519 137.359 88.483 136.913 88.483H136.688V90.296H136.936V90.297Z" fill="#414042"/>
<path d="M144.512 87.118V89.938L146.403 87.118H148.43L145.831 90.51L148.439 94.585H146.403L144.512 91.359V94.585H142.888V87.118H144.512Z" fill="#414042"/>
<path d="M154.246 89.146C153.876 88.551 153.598 88.351 153.184 88.351C152.725 88.351 152.377 88.663 152.377 89.088C152.377 89.302 152.467 89.526 152.612 89.648C152.768 89.794 152.87 89.849 153.507 90.129C154.224 90.453 154.569 90.667 154.827 90.957C155.14 91.304 155.332 91.829 155.332 92.378C155.332 93.755 154.245 94.773 152.769 94.773C151.908 94.773 151.067 94.359 150.497 93.665L151.449 92.346C151.83 93.039 152.244 93.353 152.758 93.353C153.296 93.353 153.734 92.939 153.734 92.435C153.734 92.188 153.621 91.964 153.42 91.818C153.265 91.707 153.24 91.695 152.614 91.404C151.282 90.8 150.777 90.196 150.777 89.177C150.777 87.911 151.851 86.927 153.219 86.927C154.077 86.927 154.739 87.24 155.3 87.91L154.246 89.146Z" fill="#414042"/>
</g>
<defs>
<clipPath id="clip0_2_1187">
<rect width="188" height="188" fill="white"/>
</clipPath>
</defs>
</svg>
