<svg width="188" height="188" viewBox="0 0 188 188" fill="none" xmlns="http://www.w3.org/2000/svg">
<path d="M51.24 116.479H55.368C56.704 116.479 57.799 116.229 58.574 115.668C59.349 115.108 59.737 114.187 59.737 113.127C59.737 112.066 59.349 111.153 58.574 110.584C57.799 110.024 56.738 109.774 55.368 109.774H49.017V120.778H51.24V116.479ZM57.583 113.135C57.583 113.66 57.445 113.876 57.126 114.083C56.773 114.299 56.101 114.437 55.084 114.437H51.24V111.86H55.084C56.109 111.86 56.773 111.999 57.126 112.214C57.445 112.359 57.549 112.566 57.583 113.135ZM67.777 120.994C66.545 120.994 65.166 120.822 64.037 120.08C62.908 119.374 62.099 118.072 62.133 116.134V109.748H64.357V116.134C64.391 118.038 65.382 118.917 67.778 118.951C70.174 118.883 71.165 118.038 71.199 116.134V109.748H73.423V116.134C73.423 118.072 72.648 119.374 71.519 120.08C70.389 120.822 69.01 120.994 67.777 120.994ZM85.547 120.365C86.676 120.011 87.701 119.064 87.666 117.435C87.666 116.133 86.994 115.358 86.365 114.927C86.89 114.539 87.355 113.902 87.355 112.85C87.39 111.333 86.511 110.454 85.554 110.101C84.607 109.713 83.581 109.747 82.978 109.747H76.67V120.752H82.28C83.15 120.753 84.418 120.753 85.547 120.365ZM84.805 118.426C84.383 118.599 83.745 118.676 83.039 118.676H78.877V116.03H83.211C84.056 116.03 84.658 116.168 84.978 116.418C85.297 116.634 85.434 116.909 85.434 117.409C85.408 117.995 85.228 118.211 84.805 118.426ZM84.633 113.66C84.245 113.876 83.573 114.014 82.625 114.014H78.885V111.791H82.203C83.047 111.791 83.891 111.791 84.391 111.963C84.917 112.136 85.097 112.282 85.097 112.877C85.124 113.273 84.986 113.454 84.633 113.66ZM100.748 120.753H90.941V109.748H93.164V118.668H100.748V120.753ZM102.893 109.748H105.117V120.753H102.893V109.748ZM120.033 117.366L119.818 117.754C118.792 119.874 116.818 120.994 114.035 120.994H113.967C112.097 120.994 110.545 120.469 109.451 119.443C108.356 118.452 107.762 116.978 107.762 115.246C107.762 113.479 108.323 112.006 109.416 111.016C110.511 109.991 112.062 109.464 113.967 109.464C117.25 109.464 119.076 111.153 119.68 112.704L119.852 113.092L117.879 114.006L117.707 113.583C117.181 112.351 116.121 111.541 113.967 111.506C111.287 111.575 110.055 112.774 110.02 115.419C110.055 117.607 111.467 118.874 114.114 118.908C116.018 118.908 117.147 118.133 117.887 116.754L118.103 116.366L120.033 117.366ZM122.566 120.753V109.748H124.79V120.753H122.566ZM139 117.436C139 118.315 138.578 119.271 137.699 119.944C136.785 120.616 135.441 121.038 133.502 121.038H133.398C129.727 121.038 128.392 119.202 127.753 118.53L127.435 118.176L129.158 116.695L129.443 117.013C129.865 117.47 130.39 118.883 133.64 118.917C133.923 118.917 134.802 118.883 135.544 118.668C136.319 118.418 136.81 118.064 136.81 117.436C136.81 117.013 136.595 116.797 135.931 116.557C135.294 116.341 134.346 116.238 133.355 116.134C132.226 116.03 130.959 115.918 129.934 115.496C128.909 115.108 128.064 114.299 128.064 112.954C128.064 111.825 128.555 110.912 129.511 110.308C130.425 109.704 131.7 109.463 133.286 109.463C136.913 109.429 138.395 111.368 138.681 111.755L138.964 112.109L137.31 113.445L137.026 113.127C136.604 112.67 135.897 111.541 133.252 111.506C132.648 111.506 131.839 111.575 131.244 111.791C130.64 112.041 130.331 112.282 130.331 112.816C130.365 113.238 130.504 113.42 131.141 113.626C131.745 113.842 132.623 113.91 133.606 114.014C134.803 114.118 136.071 114.23 137.13 114.687C138.155 115.074 139 115.987 139 117.436ZM58.962 129.672H65.132V135.558H63.055V134.817C62.28 135.342 61.082 135.808 59.427 135.808H59.393C57.523 135.808 55.972 135.282 54.877 134.256C53.783 133.231 53.188 131.792 53.188 130.06C53.188 128.293 53.749 126.82 54.843 125.829C55.938 124.804 57.489 124.312 59.358 124.312C62.108 124.312 64.193 125.614 64.925 127.415L65.063 127.803L63.159 128.828L62.987 128.372C62.28 126.605 60.238 126.364 59.315 126.364C56.67 126.432 55.472 127.63 55.403 130.241C55.438 132.43 56.851 133.697 59.419 133.731C60.937 133.731 62.452 133.059 62.875 131.793H58.963V129.672H58.962ZM79.592 127.836C79.592 126.776 79.204 125.898 78.395 125.328C77.619 124.768 76.524 124.518 75.155 124.518H68.882V135.523H71.105V131.076H74.277L77.482 135.523H80.231L76.844 130.938C78.179 130.654 79.549 129.706 79.592 127.836ZM77.402 127.836C77.368 128.397 77.23 128.577 76.842 128.784C76.419 128.957 75.747 129.068 74.868 129.068H71.095V126.604H74.868C75.747 126.604 76.454 126.672 76.842 126.888C77.23 127.104 77.402 127.276 77.402 127.836ZM88.157 124.277C86.287 124.277 84.668 124.838 83.539 125.863C82.41 126.888 81.771 128.371 81.771 130.093C81.771 132.032 82.616 133.48 83.814 134.428C85.046 135.341 86.597 135.807 88.114 135.807C89.631 135.807 91.181 135.384 92.414 134.428C93.646 133.515 94.491 132.032 94.491 130.093C94.491 128.37 93.853 126.888 92.724 125.863C91.647 124.838 90.062 124.277 88.157 124.277ZM92.285 129.879C92.25 132.775 90.242 133.653 88.157 133.723C86.08 133.688 84.064 132.775 84.029 129.879C84.029 127.759 85.615 126.355 88.157 126.319C90.691 126.354 92.285 127.768 92.285 129.879ZM106.064 124.519H108.287V130.905C108.287 132.844 107.512 134.145 106.383 134.851C105.254 135.558 103.875 135.765 102.643 135.765C101.412 135.765 100.033 135.592 98.904 134.851C97.775 134.145 96.966 132.844 97 130.905V124.519H99.224V130.905C99.258 132.844 100.249 133.688 102.644 133.723C105.04 133.654 106.031 132.809 106.066 130.905V124.519H106.064ZM120.844 125.372C120.068 124.811 119.008 124.561 117.638 124.561H111.252V135.566H113.475V131.3H117.638C118.973 131.3 120.068 131.05 120.844 130.489C121.619 129.929 122.006 129.007 122.006 127.947C122.006 126.846 121.619 125.932 120.844 125.372ZM119.818 127.905C119.818 128.43 119.679 128.646 119.361 128.853C119.007 129.068 118.336 129.207 117.318 129.207H113.474V126.596H117.318C118.343 126.596 119.042 126.734 119.361 126.95C119.715 127.164 119.818 127.38 119.818 127.905ZM126.41 133.446H134.347V135.523H124.196V124.518H134.175V126.595H126.419V128.749H132.909V130.825H126.419L126.41 133.446Z" fill="#414042"/>
<path d="M123.377 104.139L116.784 100.227C118.086 100.399 119.249 99.804 120.344 99.029L122.352 101.494L121.12 98.461C122.456 97.4 123.55 96.272 124.929 96.237C128.669 96.133 126.058 100.606 127.394 100.64C128.911 100.64 130.565 95.668 126.903 93.479C123.129 91.187 119.82 94.504 117.139 93.936L127.152 89.455H112.52L111.995 88.464C114.641 89.662 116.545 88.533 117.777 87.301L121.939 87.905L118.484 86.569C119.294 85.724 120 85.052 120.879 85.372C122.111 85.828 122.854 86.923 124.973 86.957C128.601 86.992 131.246 80.572 126.455 77.754C126.809 82.338 124.688 82.588 120.957 80.15L122.224 78.074L120.32 79.728C116.76 78.142 115.029 81.279 113.512 82.305C111.995 83.33 110.616 81.279 108.824 83.717C111.538 82.838 112.917 85.406 114.709 83.717C113.969 88.336 111.322 82.305 108.678 84.596C110.97 84.769 112.168 86.82 113.969 86.82C117.321 86.82 114.323 80.366 119.044 80.366L118.269 79.875C120.95 79.625 121.086 82.306 125.112 82.339C125.534 82.943 124.051 83.012 123.035 82.658C122.862 83.503 128.499 85.441 127.163 79.03C128.929 79.978 128.542 84.037 126.878 85.553C126.56 85.837 126.241 86.01 126.068 85.691C125.611 85.019 126.774 85.019 127.128 83.967C125.861 85.062 123.707 84.992 122.225 83.613C120.744 82.235 118.554 80.58 117.607 83.476C116.659 86.371 115.882 87.706 114.151 87.706C111.755 87.741 109.213 83.759 106.568 85.939C111.643 86.396 112.841 94.47 117.288 94.574C120.744 94.574 121.519 93.057 123.777 93.057C126.035 93.057 128.396 94.254 128.396 97.219C128.396 99.02 127.448 100.037 127.448 100.037C127.448 100.037 128.154 98.589 127.801 96.719C127.483 94.952 125.966 93.866 123.958 93.866C121.174 93.866 118.951 98.416 115.85 98.416C109.645 98.416 108.059 86.465 101.605 88.3C106.362 91.506 106.896 96.694 109.463 98.666C112.074 100.674 115.177 99.864 116.865 101.347C117.572 101.95 117.857 103.001 118.097 104.13H117.494C117.278 103.57 116.968 103.001 116.468 102.579C114.987 101.027 110.514 101.7 108.463 99.511C106.421 97.287 104.903 90.661 100.88 89.636C104.404 91.894 105.18 97.71 107.688 100.563C110.195 103.415 113.539 101.899 115.056 103.38C115.339 103.664 115.546 103.906 115.762 104.156H112.866C112.616 104.121 112.341 104.087 112.022 104.087C111.565 104.087 111.073 104.121 110.608 104.156H106.764C106.239 103.983 105.739 103.733 105.317 103.277C103.309 101.157 103.516 98.942 103.663 96.331C104.051 98.796 104.507 104.44 108.739 103.803C103.413 101.967 106.514 92.875 100.026 90.549C99.319 90.299 99.569 88.007 101.327 87.653C97.804 88.326 97.837 87.05 100.302 84.482C98.786 85.472 97.097 85.189 96.743 86.283C96.743 86.283 99.639 90.799 99.639 91.678C99.639 92.557 97.735 96.124 97.519 96.228C96.812 96.616 94.486 96.616 93.925 96.444C93.322 96.271 92.59 94.324 92.865 93.729C93.322 92.782 96.846 92.005 96.925 90.627C96.958 89.532 95.477 89.429 95.546 89.988C96.39 90.273 96.778 91.54 94.244 92.142L94.804 91.229C94.804 91.229 92.935 92.711 92.831 92.781C92.727 92.849 92.306 92.885 92.02 92.781C91.736 92.712 89.056 91.402 89.512 90.135C89.512 90.135 90.323 90.489 92.366 90.489C94.408 90.489 94.589 89.61 94.589 89.61C94.589 89.61 93.495 89.895 92.4 89.895C91.271 89.895 90.177 89.61 90.177 89.61C89.298 89.395 90.245 88.309 90.531 88.274H92.65C92.789 88.274 92.969 87.99 92.65 87.956C92.435 87.956 91.099 87.922 90.996 87.568C90.824 87.007 90.471 83.44 90.471 83.44C90.471 83.44 90.928 82.346 90.539 81.958C90.152 81.605 89.979 81.786 89.979 81.786C90.858 86.724 87.083 89.792 84.938 89.188L84.688 89.153C85.179 89.507 85.783 89.86 86.592 90.101C82.576 90.946 80.913 88.516 80.284 86.998C79.93 87.171 79.93 88.127 79.966 88.766C79.12 87.852 78.63 86.439 79.405 85.413C78.38 85.904 78.344 86.085 78.344 86.085C78.379 85.24 79.862 84.672 80.602 83.689C81.344 82.698 81.206 81.181 79.577 80.552C79.681 82.069 78.94 83.128 77.389 83.62C75.907 84.11 76.157 82.775 74.778 83.059C77.036 83.584 76.933 86.687 79.181 87.962C76.183 87.255 75.658 83.17 71.986 83.559C74.106 80.56 77.416 83.136 78.794 81.051C75.235 81.861 72.797 78.862 72.375 75.553C71.814 70.546 67.54 73.011 67.617 70.546C69.771 71.494 74.529 67.833 75.941 72.028C77.423 76.397 80.388 78.198 83.068 76.156L71.432 64.345L72.913 69.283C69.88 69.887 66.217 68.085 68.191 63.819C65.295 62.484 61.495 67.275 65.019 71.014C66.639 72.737 70.628 72.108 71.646 75.633L67.872 75.314L71.75 76.339L72.913 79.76L63.848 75.357L69.414 81.846C66.174 83.569 65.355 78.64 61.168 78.743C58.238 78.812 54.929 81.846 56.299 85.37C60.702 82.689 62.115 84.594 63.986 86.465L61.272 87.912L64.477 86.921C65.606 87.981 67.02 88.859 69.311 88.723C73.121 88.438 76.473 87.205 77.317 88.266C77.989 89.041 77.213 89.498 75.835 89.498H57.713L64.977 93.41C64.27 93.935 62.262 96.443 60.85 96.443C59.436 96.443 56.299 94.289 55.455 98.063C58.694 97.502 60.323 104.586 67.123 98.942L63.951 104.199H49V106H138.879V104.173H123.377V104.139ZM119.852 82.776C121.507 83.482 116.363 88.523 114.777 88.342C118.06 87.36 118.163 82.069 119.852 82.776ZM120.524 97.615C121.687 94.512 125.359 93.168 126.875 95.891C126.944 96.029 126.841 96.141 126.557 95.857C124.653 93.953 122.222 95.753 120.705 97.726C120.49 98.046 120.421 97.865 120.524 97.615ZM67.459 64.267C66.511 65.921 66.684 68.955 70.526 69.877C64.106 71.314 64.287 64.017 67.459 64.267ZM62.279 84.077C59.314 82.457 56.713 84.396 56.713 84.396C57.583 81.466 63.055 81.225 62.279 84.077ZM63.58 82.914C63.124 82.31 62.77 81.819 62.279 81.647C61.641 81.474 60.978 81.474 60.34 81.509C59.6 81.543 58.928 81.577 58.755 81.12C58.617 80.802 58.755 80.482 59.143 80.207C59.531 79.923 60.134 79.716 60.729 79.682C61.401 79.648 61.961 79.785 62.348 80.138C62.737 80.457 62.874 80.492 62.952 80.457C63.056 80.423 63.021 80.173 63.021 80.034C63.021 79.93 62.987 79.819 63.055 79.862C64.116 80.034 64.606 80.673 65.175 81.344C66.088 82.438 67.467 84.093 70.854 83.498C69.957 86.516 65.098 85.594 63.58 82.914ZM66.295 87.042C66.123 85.74 72.715 84.749 72.784 86.654C72.818 88.273 66.511 88.489 66.295 87.042ZM89.32 89.963C88.441 90.247 88.295 91.652 90.838 92.255C90.027 92.359 87.984 92.005 87.908 90.601C87.873 89.506 89.355 89.402 89.32 89.963ZM86.848 92.367C89.209 92.505 91.717 93.703 91.717 93.703C92.001 94.307 91.294 96.245 90.656 96.417C90.095 96.59 87.235 96.279 86.812 95.082C88.501 95.538 88.648 94.909 88.648 94.909C88.648 94.909 87.097 94.909 86.46 93.849C87.691 94.271 88.261 93.849 88.261 93.849C88.261 93.849 85.901 92.935 85.83 92.401H86.856V92.367H86.848ZM79.127 89.23C79.799 90.005 75.498 91.945 73.344 91.204C76.946 91.272 78.428 88.455 79.127 89.23ZM74.197 92.083C76.662 92.083 78.109 91.272 78.713 90.67C78.463 92.436 76.593 93.031 74.197 93.031C71.801 93.031 69.613 90.42 67.812 92.152C70.982 91.763 71.482 95.15 75.076 94.021C71.974 97.374 69.681 91.479 66.123 93.177C67.949 88.843 71.758 92.083 74.197 92.083ZM56.488 97.478C58.358 94.729 59.806 98.503 62.874 96.417C63.899 98.037 61.392 99.063 59.91 98.141C58.436 97.228 57.264 97.193 56.488 97.478ZM65.52 99.416C64.141 100.477 60.686 101.536 60.729 99.278C64.357 99.984 65.175 94.832 68.381 96.348C67.562 96.529 66.855 98.391 65.52 99.416ZM65.028 104.139L75.644 98.287C75.644 100.226 75.36 101.64 74.904 102.69L69.681 104.138H65.028V104.139ZM75.395 104.139H74.62C75.145 103.364 75.568 102.45 76.034 101.39C76.059 102.027 75.921 103.121 75.395 104.139ZM77.825 104.139C78.281 100.399 76.24 94.832 82.056 90.532C81.281 91.239 77.652 94.41 78.773 103.053C79.902 101.183 78.945 94.1 82.297 91.557C79.936 94.453 81.202 99.529 79.479 104.148H77.825V104.139ZM81.531 104.139H80.229C82.167 100.511 81.074 94.651 82.771 92.859C81.6 94.936 83.436 100.02 81.531 104.139ZM82.763 104.139L83.823 102.45C84.349 103.122 84.634 103.682 84.737 104.139H82.763ZM88.787 104.139H88.08C88.114 103.614 88.011 103.114 87.623 102.622C84.943 99.062 84.84 98.287 84.84 98.287C85.09 101.002 86.779 101.355 87.201 104.139H86.072C85.65 102.019 83.529 101.209 84.452 95.004L84.521 94.547C84.658 100.192 88.787 101.106 88.787 103.889C88.83 103.966 88.787 104.069 88.787 104.139ZM91.785 104.139H90.588C91.044 102.2 90.234 101.597 88.58 99.838C91.044 101.536 91.932 102.734 91.785 104.139ZM89.252 98.184C89.036 98.116 88.898 97.58 88.898 97.478C88.898 97.444 88.966 97.34 89.252 97.34C89.252 97.34 91.371 97.408 92.423 97.408C93.518 97.408 95.56 97.34 95.594 97.34C95.879 97.34 95.948 97.444 95.948 97.478C95.948 97.581 95.81 98.15 95.594 98.184C95.594 98.184 93.586 98.676 92.389 98.607C91.294 98.675 89.286 98.184 89.252 98.184ZM93.448 104.139C93.482 103.225 93.31 102.165 92.603 100.718C93.835 102.165 94.189 103.182 94.224 104.139H93.448ZM96.197 104.139H95.456C95.775 103.044 95.879 101.846 94.931 100.158C96.301 101.355 96.404 102.734 96.197 104.139ZM97.68 104.139H96.835C97.189 102.726 97.396 101.209 96.516 99.416C97.921 100.58 97.887 102.381 97.68 104.139ZM99.119 104.139L98.24 101.563C98.946 101.916 99.437 102.864 99.894 104.139H99.119ZM103.178 104.139C102.653 103.01 102.083 102.165 101.454 101.881C101.91 102.553 102.229 103.328 102.514 104.139H101.627C100.359 101.631 98.274 99.77 100.429 95.151C98.241 99.874 103.635 102.803 104.66 103.752C104.764 103.856 104.91 104.002 105.014 104.174H103.178V104.139ZM95.354 79.036C94.931 79.674 95.991 80.199 97.077 79.639C98.025 79.149 98.663 78.545 100.18 78.545C101.128 78.545 102.472 80.199 103.213 79.002C103.739 79.708 103.04 80.553 101.911 80.553C100.749 80.553 100.257 79.605 98.809 79.605C97.361 79.605 97.085 80.484 95.215 80.484C93.311 80.484 92.923 77.063 95.431 76.779C93.975 78.011 94.5 79.036 95.354 79.036ZM110.864 61.509C110.054 64.965 107.547 63.836 105.332 66.835C103.117 69.834 106.279 74.978 100.187 74.943C105.296 73.675 102.056 69.936 104.521 66.343C105.926 64.232 109.598 64.302 110.864 61.509ZM96.792 69.377C96.792 69.377 96.154 71.807 97.567 73.185C94.577 72.09 96.792 69.377 96.792 69.377ZM110.795 63.414C110.02 65.956 108.537 65.534 106.918 67.894C105.047 69.971 107.521 75.933 102.367 75.795C106.461 74.597 104.203 70.4 106.176 67.472C107.271 65.853 109.701 65.431 110.795 63.414ZM109.942 77.132C109.304 77.554 107.615 79.39 106.589 79.881C106.589 78.683 109.131 74.658 113.397 76.391C112.906 76.812 111.114 76.356 109.942 77.132ZM106.883 82.457C104.979 81.853 103.712 83.405 103.393 82.707C103.212 81.819 105.926 81.819 106.883 82.457ZM108.779 81.294C108.71 75.34 116.535 78.441 117.457 74.279C118.129 78.613 110.441 78.364 108.779 81.294ZM106.668 84.999C103.669 83.698 102.083 85.56 101.945 84.681C101.73 83.371 105.643 83.518 106.668 84.999ZM97.887 62.923C99.895 67.05 92.777 68.179 95.81 73.151C91.294 69.446 98.137 66.137 97.887 62.923ZM94.043 94.271C94.215 94.167 94.361 93.667 94.431 93.564C95.207 93.039 96.155 92.754 96.585 92.47C96.516 93.315 94.818 94.443 94.043 94.271ZM86.812 80.94C85.615 80.69 84.236 81.888 82.866 82.526C84.168 84.396 87.132 84.534 88.33 85.206C88.614 84.784 89.493 81.466 86.812 80.94ZM85.443 83.974C84.211 83.518 84.736 81.157 86.356 81.51C86.253 81.682 85.512 83.095 85.443 83.974ZM86.356 84.258C86.881 83.698 87.269 82.285 87.381 82.07C88.545 82.982 87.382 84.646 86.356 84.258ZM86.115 79.708C84.814 79.708 81.987 82.561 81.324 79.777C81.324 79.777 81.746 79.915 82.271 79.881C82.762 78.261 85.408 76.744 87.028 77.2C85.124 77.338 83.675 78.682 83.891 79.458C84.175 80.483 85.829 78.898 87.244 78.933C88.898 78.933 89.82 80.621 91.121 79.071C91.044 82.389 87.312 79.708 86.115 79.708ZM90.734 62.112L92.147 65.783C92.147 65.783 90.845 67.3 90.845 69.98C90.845 75.236 95.146 75.726 94.861 73.607C91.828 74.986 91.69 70.608 92.535 69.696C92.535 69.696 91.974 71.987 94.017 72.832C91.302 68.352 96.628 66.662 96.628 63.103C96.628 60.139 94.792 59.157 94.826 56.442C94.86 53.159 99.695 52.314 99.764 53.546C99.797 54.459 96.239 54.537 96.204 57.949C96.135 61.121 99.694 61.896 99.625 64.964C99.557 66.972 95.954 68.842 98.212 72.65L103.357 58.157L99.376 62.56C98.109 60.975 97.118 60.836 97.118 58.01C97.118 55.184 100.255 54.77 100.255 53.46C100.255 52.399 98.669 52.262 97.54 52.193C95.774 52.124 92.602 53.675 92.602 56.949C92.602 60.232 94.826 61.887 92.602 64.99L90.734 62.112ZM95.387 61.405C96.801 65.852 92.182 67.05 91.794 69.971C91.51 66.413 95.913 64.724 95.387 61.405ZM83.607 87.291L83.469 87.042C83.15 86.516 83.296 85.387 83.296 85.387C82.556 85.353 81.392 86.801 81.392 86.801C81.392 86.801 80.901 85.112 82.66 84.37C82.521 84.12 82.625 83.81 82.625 83.81C84.072 85.291 86.684 85.223 87.382 85.714C87.382 85.697 82.97 84.922 83.607 87.291ZM74.154 65.042L77.394 66.594C77.498 67.723 77.955 68.886 79.083 70.188C80.349 71.668 83.771 72.09 83.917 75.546C84.977 74.486 84.132 72.056 81.84 70.678C73.128 65.603 87.726 57.597 78.35 54.745C86.459 54.219 83.003 61.552 83.642 64.474C84.521 68.533 88.294 67.542 90.302 70.084L88.08 57.743L86.003 66.344C83.254 65.921 84.202 62.009 84.279 58.485C84.418 51.747 72.886 53.694 74.438 57.46C75.041 58.908 78.954 55.659 78.988 59.08C79.023 61.407 77.541 63.415 77.402 65.673L74.154 65.042ZM75.248 56.934C74.473 55.986 78.351 54.892 79.058 57.322C77.152 56.046 75.637 57.355 75.248 56.934ZM89.846 74.064C91.571 67.894 78.317 71.21 82.16 63.948C80.712 71.143 92.63 67.403 89.846 74.064ZM103.462 87.214C110.338 84.887 112.449 96.279 116.475 96.202C118.939 96.133 119.862 94.547 121.654 94.16C120.422 94.97 118.655 97.124 116.475 97.158C110.408 97.305 110.545 87.783 103.462 87.214ZM87.908 72.34C87.908 72.056 87.804 71.815 87.589 71.6C86.322 70.332 82.582 70.609 80.85 68.818C76.904 64.905 84.478 61.553 81.911 55.952C86.633 59.83 76.378 66.81 83.212 69.137C86.108 70.128 87.09 70.472 87.796 71.006C88.253 71.359 88.571 71.919 88.571 72.557C88.571 73.652 87.692 74.531 86.598 74.531C85.994 74.531 85.469 74.281 85.116 73.859C84.341 73.048 84.591 71.566 84.056 71.144C84.969 70.972 85.469 72.557 86.383 73.118C86.555 73.221 86.736 73.29 86.908 73.29C87.451 73.322 87.908 72.9 87.908 72.34ZM77.084 75.192C77.791 76.847 79.764 77.45 80.996 77.484C78.428 80.803 76.446 76.709 77.084 75.192ZM94.611 95.323C94.965 95.107 95.284 94.685 95.456 94.443C96.585 94.021 97.145 93.806 97.223 93.599C97.43 94.341 95.947 95.676 94.611 95.323ZM104.375 80.69C103.6 81.113 103.212 81.992 102.928 81.535C102.756 81.294 103.35 80.553 104.375 80.69ZM102.083 82.173C100.704 81.535 99.3 80.337 98.137 80.587C95.422 81.113 96.336 84.431 96.619 84.853C97.817 84.181 100.781 84.008 102.083 82.173ZM99.473 83.552C99.473 83.552 98.662 81.26 98.559 81.087C100.213 80.725 100.704 83.095 99.473 83.552ZM97.533 81.647C97.637 81.862 97.99 83.232 98.558 83.835C97.533 84.224 96.369 82.561 97.533 81.647ZM108.004 74.167C106.805 75.503 106.875 76.563 105.073 77.727C107.434 78.752 107.504 75.607 109.83 74.944C111.45 74.487 112.648 76.425 114.94 75.366C117.232 74.305 116.421 70.041 117.55 68.172C118.679 66.302 121.747 64.544 123.937 68.31C123.937 68.31 120.231 64.682 118.507 69.016C119.704 68.026 121.506 67.715 121.506 68.662C120.558 68.981 119.041 69.507 118.998 72.892C118.929 76.839 117.344 77.684 116.102 78.502C114.301 79.699 110.147 79.631 109.225 82.311L123.651 75.891H119.248C119.808 72.651 118.575 67.852 124.608 68.981C125.348 67.396 120.342 62.242 115.973 68.102L115.551 66.62C114.639 74.417 110.511 71.384 108.004 74.167ZM115.621 70.255C116.362 71.522 114.139 73.815 114.139 73.815C114.7 74.03 114.7 74.875 113.967 75.081C112.665 75.47 111.606 73.987 109.951 74.409C110.295 73.814 113.785 73.961 115.621 70.255ZM74.895 77.45C74.895 74.908 76.163 73.469 73.836 71.918C78.385 72.909 73.904 79.57 79.971 79.467C78.635 81.466 74.93 80.519 74.895 77.45ZM103.988 64.017V60.95L104.797 63.664C106.633 63.139 108.96 62.183 108.891 60.527C108.823 58.873 107.09 58.167 107.055 57.14C107.022 55.624 112.235 56.503 112.235 61.371C112.235 64.827 111.038 65.852 111.038 65.852L115.44 63.594L107.788 73.503C107.788 73.503 105.428 77.097 103.876 76.467C105.358 76.183 107.298 73.753 107.298 71.599C107.298 68.704 109.556 66.946 110.263 66.033C111.003 65.085 114.458 58.518 108.288 56.968C112.304 61.062 108.745 62.923 105.358 64.233C102.118 65.465 103.1 70.436 102.118 72.169C101.058 73.936 98.241 74.565 97.715 74.565C98.663 72.911 100.611 72.377 101.309 70.472C102.014 68.464 100.988 65.534 103.988 64.017Z" fill="#414042"/>
</svg>
