<svg width="140" height="120" viewBox="0 0 140 120" fill="none" xmlns="http://www.w3.org/2000/svg">
<g clip-path="url(#clip0_8401_77)">
<path d="M39.062 61.567H100.937V20.317H39.062V61.567ZM40.781 22.036H99.218V59.85H40.781V22.036Z" fill="#696969"/>
<path d="M39.062 85.631H56.25V68.442H39.062V85.631ZM40.781 70.161H54.531V83.911H40.781V70.161Z" fill="#696969"/>
<path d="M39.062 109.692H56.25V92.506H39.062V109.692ZM40.781 94.224H54.531V107.974H40.781V94.224Z" fill="#696969"/>
<path d="M94.063 72.74H63.126V74.458H94.063V72.74Z" fill="#696969"/>
<path d="M100.938 79.615H63.126V81.333H100.938V79.615Z" fill="#696969"/>
<path d="M94.063 96.802H63.126V98.521H94.063V96.802Z" fill="#696969"/>
<path d="M100.938 103.677H63.126V105.397H100.938V103.677Z" fill="#696969"/>
<path d="M118.984 96.485L115.116 93.466V36.542L118.984 33.524V10.005H21.016V33.525L24.884 36.543V93.468L21.016 96.487V120.007H118.985V96.485H118.984ZM117.266 118.285H22.734V97.324L25.941 94.822L26.601 94.305V93.466V36.542V35.704L25.941 35.188L22.734 32.685V11.725H117.265V32.686L114.058 35.189L113.398 35.705V36.543V93.468V94.307L114.058 94.824L117.265 97.326V118.285H117.266Z" fill="#696969"/>
</g>
<defs>
<clipPath id="clip0_8401_77">
<rect width="140" height="120" fill="white"/>
</clipPath>
</defs>
</svg>
