<svg width="140" height="120" viewBox="0 0 140 120" fill="none" xmlns="http://www.w3.org/2000/svg">
<path d="M131.994 30.44L127.293 19.745C127.177 19.392 126.823 19.274 126.471 19.274C126.119 19.274 125.765 19.51 125.649 19.745L120.947 30.44C120.831 30.557 120.831 30.794 120.947 31.028V31.145V114.71C120.947 117.648 123.299 119.999 126.236 119.999H127.059C129.997 119.999 132.348 117.648 132.348 114.71V31.146V31.029C132.112 30.794 132.112 30.676 131.994 30.44ZM130.35 101.431H122.592V32.087H130.35V101.431ZM122.592 103.31H130.35V108.129H122.592V103.31ZM126.471 22.331L129.996 30.206H122.945L126.471 22.331ZM126.823 118.237H126.001C124.119 118.237 122.592 116.71 122.592 114.829V109.892H130.35V114.829C130.35 116.71 128.82 118.237 126.823 118.237Z" fill="#696969"/>
<path d="M126.471 48.775C126.941 48.775 127.411 48.422 127.411 47.836V43.135C127.411 42.665 127.058 42.194 126.471 42.194C126.001 42.194 125.532 42.548 125.532 43.135V47.836C125.531 48.423 126.001 48.775 126.471 48.775Z" fill="#696969"/>
<path d="M126.471 96.023C126.941 96.023 127.411 95.67 127.411 95.083V90.382C127.411 89.912 127.058 89.442 126.471 89.442C126.001 89.442 125.532 89.795 125.532 90.382V95.083C125.531 95.554 126.001 96.023 126.471 96.023Z" fill="#696969"/>
<path d="M126.471 84.153C126.941 84.153 127.411 83.799 127.411 83.212V78.511C127.411 78.041 127.058 77.571 126.471 77.571C126.001 77.571 125.532 77.924 125.532 78.511V83.212C125.531 83.8 126.001 84.153 126.471 84.153Z" fill="#696969"/>
<path d="M126.471 60.6459C126.941 60.6459 127.411 60.2929 127.411 59.7059V55.0049C127.411 54.5339 127.058 54.0649 126.471 54.0649C126.001 54.0649 125.532 54.4179 125.532 55.0049V59.7059C125.531 60.1769 126.001 60.6459 126.471 60.6459Z" fill="#696969"/>
<path d="M126.471 72.399C126.941 72.399 127.411 72.047 127.411 71.46V66.759C127.411 66.287 127.058 65.818 126.471 65.818C126.001 65.818 125.532 66.172 125.532 66.759V71.46C125.531 72.048 126.001 72.399 126.471 72.399Z" fill="#696969"/>
<path d="M112.719 109.069V15.279H130.466C130.937 15.279 131.408 14.926 131.408 14.339V14.222C131.524 14.104 131.641 13.986 131.641 13.868C131.994 12.81 132.112 11.753 132.112 10.695C132.112 4.818 127.293 0 121.418 0H111.779H38.322H37.028C36.91 0 36.91 0 36.91 0C30.565 0 25.392 5.171 25.392 11.518V104.721H7.646C7.176 104.721 6.707 105.074 6.707 105.661V105.778C6.589 105.896 6.471 106.013 6.471 106.132C6.118 107.189 6 108.247 6 109.305C6 115.181 10.819 120 16.696 120H26.334H99.791H100.613H100.966C101.083 120 101.083 120 101.083 120C107.312 120 112.367 115.181 112.719 109.069ZM130.35 10.578C130.35 11.517 130.233 12.341 129.996 13.281C129.996 13.398 129.996 13.398 129.996 13.515H48.431C48.547 12.927 48.664 12.223 48.664 11.635C48.664 7.521 46.431 3.877 43.142 1.762H121.535C126.353 1.763 130.35 5.759 130.35 10.578ZM7.882 109.422C7.882 108.483 8 107.659 8.234 106.72C8.234 106.602 8.234 106.602 8.234 106.484H89.684C89.566 107.072 89.566 107.778 89.566 108.365C89.566 112.479 91.799 116.123 95.09 118.238H16.696C11.759 118.237 7.882 114.241 7.882 109.422ZM101.201 118.237C95.794 118.237 91.447 113.887 91.447 108.482C91.447 107.777 91.562 106.719 91.799 105.896C91.917 105.425 91.563 104.956 91.093 104.838C90.977 104.838 90.977 104.838 90.86 104.838C90.742 104.838 90.624 104.72 90.506 104.72H27.156V11.518C27.156 6.113 31.506 1.763 36.91 1.763C42.317 1.763 46.667 6.113 46.667 11.518C46.667 12.224 46.549 13.282 46.314 14.104C46.197 14.574 46.548 15.044 47.018 15.162C47.136 15.162 47.136 15.162 47.254 15.162C47.372 15.162 47.487 15.28 47.606 15.28H110.839V108.483C110.956 113.771 106.608 118.237 101.201 118.237Z" fill="#696969"/>
<path d="M48.757 64.3269C50.012 59.1729 53.201 54.8139 57.736 52.0589C62.267 49.3049 67.6 48.4799 72.756 49.7389C77.904 50.9929 82.261 54.1799 85.017 58.7129C87.774 63.2459 88.599 68.5809 87.342 73.7349L89.311 74.2159C90.697 68.5349 89.787 62.6559 86.749 57.6599C83.712 52.6659 78.913 49.1519 73.234 47.7679C67.556 46.3829 61.677 47.2899 56.683 50.3259C51.687 53.3629 48.174 58.1639 46.787 63.8449L48.757 64.3269Z" fill="#696969"/>
<path d="M47.454 68.007C48.6939 68.007 49.699 67.0018 49.699 65.762C49.699 64.5221 48.6939 63.517 47.454 63.517C46.2141 63.517 45.209 64.5221 45.209 65.762C45.209 67.0018 46.2141 68.007 47.454 68.007Z" fill="#696969"/>
<path d="M87.713 76.9599C88.954 76.9599 89.96 75.9539 89.96 74.7129C89.96 73.472 88.954 72.4659 87.713 72.4659C86.472 72.4659 85.466 73.472 85.466 74.7129C85.466 75.9539 86.472 76.9599 87.713 76.9599Z" fill="#696969"/>
<path d="M75.944 48.3969C75.944 49.9569 74.687 51.2159 73.132 51.2159C71.58 51.2159 70.32 49.9559 70.32 48.3969C70.32 46.8479 71.581 45.5869 73.132 45.5869C74.688 45.5869 75.944 46.8479 75.944 48.3969Z" fill="#696969"/>
<path d="M91.4682 52.6495L55.2066 41.9423L54.92 42.9129L91.1816 53.6201L91.4682 52.6495Z" fill="#696969"/>
<path d="M55.222 43.74C55.9107 43.74 56.469 43.1817 56.469 42.493C56.469 41.8043 55.9107 41.246 55.222 41.246C54.5333 41.246 53.975 41.8043 53.975 42.493C53.975 43.1817 54.5333 43.74 55.222 43.74Z" fill="#696969"/>
<path d="M91.659 54.639C92.3471 54.639 92.905 54.0811 92.905 53.393C92.905 52.7048 92.3471 52.147 91.659 52.147C90.9708 52.147 90.413 52.7048 90.413 53.393C90.413 54.0811 90.9708 54.639 91.659 54.639Z" fill="#696969"/>
</svg>
