<svg width="140" height="120" viewBox="0 0 140 120" fill="none" xmlns="http://www.w3.org/2000/svg">
<g clip-path="url(#clip0_8401_41)">
<path d="M46.23 70.062C46.526 70.358 46.97 70.505 47.414 70.505C47.858 70.505 48.302 70.358 48.599 70.062L92.997 25.664C93.589 25.072 93.589 23.888 92.997 23.296C92.404 22.705 91.221 22.705 90.629 23.296L46.23 67.693C45.49 68.286 45.49 69.321 46.23 70.062Z" fill="#696969" stroke="white" stroke-width="1.25" stroke-miterlimit="10"/>
<path d="M38.091 54.227C38.534 54.227 38.979 54.079 39.275 53.783L57.922 35.136C58.514 34.544 58.514 33.36 57.922 32.768C57.33 32.176 56.146 32.176 55.554 32.768L36.907 51.268C36.315 51.86 36.315 53.043 36.907 53.635C37.203 54.078 37.646 54.227 38.091 54.227Z" fill="#696969" stroke="white" stroke-width="1.25" stroke-miterlimit="10"/>
<path d="M79.529 63.105C79.825 63.401 80.268 63.549 80.713 63.549C81.158 63.549 81.601 63.401 81.897 63.105L100.544 44.458C101.137 43.866 101.137 42.683 100.544 42.091C99.952 41.498 98.769 41.498 98.177 42.091L79.529 60.59C78.789 61.329 78.789 62.366 79.529 63.105Z" fill="#696969" stroke="white" stroke-width="1.25" stroke-miterlimit="10"/>
<path d="M134.583 4.5H5.532C2.72 4.5 0.5 6.868 0.5 9.68V97.885C0.5 100.697 2.72 102.916 5.532 102.916H52.742L48.45 116.532H42.826C41.938 116.532 41.198 117.271 41.198 118.159C41.198 119.047 41.938 119.935 42.974 119.935H49.782H90.48H97.288C98.177 119.935 98.916 119.196 98.916 118.307C98.916 117.418 98.177 116.679 97.288 116.679H91.665L87.373 103.064H134.583C137.395 103.064 139.615 100.844 139.615 98.032V9.68C139.615 6.868 137.395 4.5 134.583 4.5ZM5.532 7.903H134.583C135.472 7.903 136.211 8.643 136.211 9.532V81.012H3.904V9.68C3.904 8.644 4.644 7.903 5.532 7.903ZM88.112 116.532H52.002L56.294 102.916H83.673L88.112 116.532ZM134.583 99.513H85.005H55.11H5.532C4.643 99.513 3.904 98.773 3.904 97.885V84.565H136.211V97.885C136.211 98.772 135.472 99.513 134.583 99.513Z" fill="#696969" stroke="white" stroke-width="1.25" stroke-miterlimit="10"/>
</g>
<defs>
<clipPath id="clip0_8401_41">
<rect width="140" height="120" fill="white"/>
</clipPath>
</defs>
</svg>
