<svg width="221" height="76" viewBox="0 0 221 76" fill="none" xmlns="http://www.w3.org/2000/svg">
<g clip-path="url(#clip0_8401_272)">
<path d="M64.823 56.12C56.9 56.432 51.724 46.069 49.212 43.5C48.114 43.656 46.388 43.811 44.898 43.734L44.897 50.979C44.897 54.093 45.367 54.641 49.21 54.641V56.04L44.032 55.886H40.896L36.972 56.04V54.641C40.188 54.641 40.502 54.173 40.503 51.21L40.505 31.192C40.505 27.763 39.563 27.374 36.974 27.374V25.972L41.524 26.05L45.604 25.894C54.391 25.503 59.333 28.075 59.49 34.54C59.645 39.213 56.115 41.318 53.683 42.486C57.997 47.629 61.841 54.014 67.016 54.639V56.038L64.823 56.12ZM44.9 27.764L44.899 41.63C52.665 41.864 55.49 39.059 55.254 34.62C55.02 29.4 51.177 26.75 44.9 27.764Z" fill="#414042"/>
<path d="M93.06 56.743C90.55 56.743 88.276 55.418 88.276 52.769C75.408 61.804 69.996 53.937 70.467 49.34C70.861 44.434 76.589 39.681 88.121 39.681L88.122 33.916C88.123 29.475 87.259 27.761 84.123 27.761C79.338 27.761 76.356 30.8 76.356 33.839C76.356 34.773 73.843 35.474 73.215 35.474C71.255 35.474 71.962 32.669 72.981 31.267C75.18 28.384 80.356 25.736 85.536 25.658C90.085 25.58 92.831 27.917 92.83 32.435L92.826 49.261C92.826 52.064 92.746 54.558 95.101 54.089C95.807 54.011 96.983 53.546 98.004 52.689L98.867 53.78C96.983 55.341 95.334 56.743 93.06 56.743ZM88.2 41.786C80.041 41.865 75.49 44.514 75.41 48.486C75.331 51.757 77.919 57.367 88.198 50.668L88.2 41.786Z" fill="#414042"/>
<path d="M117.536 45.837C116.359 45.994 115.732 46.069 113.928 45.758V44.358C119.03 44.59 121.932 40.774 121.856 35.867C121.858 31.503 118.17 26.907 112.05 27.609L112.039 69.925C112.038 73.43 112.351 74.522 116.193 74.522V76L111.408 75.845H108.271L103.487 76V74.521C107.175 74.521 107.486 73.82 107.488 69.924L107.497 30.957C107.498 27.997 107.264 27.374 103.733 27.374V25.973L107.89 26.051L112.519 25.973C121.857 25.895 126.09 29.868 126.638 35.399C127.109 40.072 122.635 45.448 117.536 45.837Z" fill="#414042"/>
<path d="M162.796 55.886H159.817L155.893 56.04V54.641C158.481 54.641 158.954 54.173 158.955 51.29L158.959 41.63H140.994L140.99 50.979C140.989 53.86 141.302 54.639 144.36 54.639V56.039L139.967 55.885H136.987L132.905 56.039L132.908 54.639C136.047 54.639 136.516 53.938 136.518 51.133L136.526 30.335C136.526 27.919 136.055 27.374 133.074 27.374V25.973L137.783 26.051H140.845L144.295 25.973V27.375C140.921 27.375 140.998 28.31 140.998 30.257L140.994 39.449H158.959L158.963 30.179C158.965 27.92 158.651 27.375 155.59 27.375L155.592 25.973L159.201 26.051H162.339L166.812 25.973V27.375C163.359 27.375 163.439 28.31 163.437 29.946L163.429 51.29C163.427 53.859 163.66 54.641 166.957 54.641L166.956 56.04L162.796 55.886Z" fill="#414042"/>
<path d="M181.396 30.179L181.386 51.134C181.383 54.016 181.539 54.641 184.913 54.641L184.912 56.04L180.518 55.886H177.539L173.302 56.04L173.304 54.641C176.677 54.641 176.992 53.862 176.992 51.21L177.002 30.491C177.003 28.232 176.532 27.375 173.314 27.375V25.973L177.552 26.051H180.532L185.005 25.973L185.004 27.375C182.262 27.375 181.396 27.92 181.396 30.179Z" fill="#414042"/>
<path d="M218.881 56.198C210.408 56.664 201.393 43.889 198.963 40.851L198.957 50.898C198.956 54.091 199.348 54.638 202.407 54.638L202.406 56.038L198.484 55.884H195.422L191.422 56.038V54.638C194.013 54.638 194.403 54.247 194.405 51.834L194.42 20.751C194.422 18.025 194.735 17.401 191.441 17.401V16L195.521 16.078H198.583L202.27 16V17.403C199.291 17.403 198.975 17.948 198.973 21.065L198.963 39.839C202.651 36.723 206.262 33.528 210.109 29.789C211.836 28.154 211.992 27.374 209.011 27.374V25.973L212.855 26.051H215.916L218.896 25.973L218.818 27.375C217.09 27.375 215.679 27.764 212.697 30.491L203.201 39.295C212.843 51.602 217.939 54.405 221 54.641V56.04L218.881 56.198Z" fill="#414042"/>
<path d="M178.99 23.399C180.796 23.399 182.26 21.9457 182.26 20.153C182.26 18.3603 180.796 16.907 178.99 16.907C177.184 16.907 175.72 18.3603 175.72 20.153C175.72 21.9457 177.184 23.399 178.99 23.399Z" fill="#414042"/>
<path d="M15.221 72.941C7.99 73.101 -2.004 69.39 0.350997 62.855C1.652 59.306 6.771 56.966 12.216 56.724C5.634 54.464 2.384 48.414 2.384 41.557C2.384 32.599 10.105 27.032 16.036 25.984C22.05 25.016 27.819 26.144 30.826 27.678L31.069 33.65H29.444C27.738 28.163 23.837 27.437 19.855 27.357C12.705 27.195 6.854 32.519 7.504 41.475C8.073 49.383 12.867 55.352 19.528 55.918C22.778 56.16 25.704 56.24 30.254 52.125H31.88L31.879 59.146C31.879 67.134 25.785 72.618 15.221 72.941ZM26.761 57.291C25.868 57.855 22.534 58.5 18.148 58.339C12.622 58.177 6.202 60.113 5.147 63.1C3.441 68.182 10.673 70.44 16.766 70.2C22.941 69.878 26.761 66.651 26.761 61.085V57.291Z" fill="#414042"/>
</g>
<defs>
<clipPath id="clip0_8401_272">
<rect width="221" height="76" fill="white"/>
</clipPath>
</defs>
</svg>
