<svg width="19" height="32" viewBox="0 0 19 32" fill="none" xmlns="http://www.w3.org/2000/svg">
<g clip-path="url(#clip0_8406_1229)">
<path d="M9.5 1.949C13.663 1.949 17.051 5.447 17.051 9.746V22.252C17.051 26.552 13.663 30.05 9.5 30.05C5.336 30.05 1.949 26.552 1.949 22.252V9.747C1.949 5.447 5.336 1.949 9.5 1.949ZM9.5 0C4.275 0 0 4.386 0 9.747V22.253C0 27.614 4.275 32 9.5 32C14.725 32 19 27.614 19 22.253V9.747C19 4.386 14.725 0 9.5 0Z" fill="#414042"/>
<path d="M10.333 10H8.33301V16H10.333V10Z" fill="#414042"/>
</g>
<defs>
<clipPath id="clip0_8406_1229">
<rect width="19" height="32" fill="white"/>
</clipPath>
</defs>
</svg>
