<svg width="35" height="35" viewBox="0 0 35 35" fill="none" xmlns="http://www.w3.org/2000/svg">
<path fill-rule="evenodd" clip-rule="evenodd" d="M35 17.5C35 27.165 27.165 35 17.5 35C7.835 35 0 27.165 0 17.5C0 7.836 7.835 0 17.5 0C27.165 0 35 7.836 35 17.5ZM4.624 9.432V25.272H12.301C13.011 25.272 13.704 25.182 14.371 25.006C15.047 24.828 15.647 24.555 16.173 24.184C16.694 23.816 17.116 23.338 17.426 22.75C17.733 22.167 17.888 21.477 17.888 20.673C17.888 19.682 17.653 18.837 17.171 18.131C16.692 17.429 15.97 16.936 14.996 16.655C15.71 16.317 16.247 15.881 16.611 15.349C16.972 14.816 17.153 14.15 17.153 13.352C17.153 12.616 17.034 11.992 16.793 11.495C16.544 10.99 16.199 10.588 15.758 10.286C15.31 9.985 14.779 9.764 14.159 9.633C13.533 9.497 12.849 9.432 12.091 9.432H4.624ZM8.112 12.13V15.83H11.64C12.257 15.83 12.769 15.684 13.175 15.388C13.576 15.093 13.771 14.61 13.771 13.946C13.771 13.579 13.706 13.274 13.576 13.037C13.441 12.8 13.265 12.616 13.039 12.485C12.816 12.351 12.562 12.258 12.271 12.208C11.983 12.152 11.683 12.13 11.374 12.13H8.112ZM8.112 22.574V18.212H11.903C12.653 18.212 13.264 18.385 13.722 18.732C14.177 19.085 14.408 19.664 14.408 20.48C14.408 20.897 14.34 21.241 14.2 21.507C14.06 21.775 13.865 21.986 13.633 22.139C13.4 22.299 13.123 22.407 12.811 22.475C12.503 22.543 12.177 22.575 11.834 22.575H8.112V22.574ZM30.355 20.296H22.08C22.08 21.203 22.385 22.061 22.856 22.519C23.329 22.981 24.011 23.212 24.895 23.212C25.53 23.212 26.079 23.051 26.539 22.732C26.996 22.41 27.275 22.069 27.383 21.715H30.156C29.71 23.094 29.034 24.08 28.11 24.674C27.198 25.27 26.087 25.567 24.79 25.567C23.886 25.567 23.073 25.42 22.344 25.133C21.614 24.841 21.003 24.432 20.491 23.9C19.991 23.364 19.603 22.732 19.327 21.987C19.053 21.249 18.915 20.431 18.915 19.544C18.915 18.686 19.057 17.887 19.339 17.145C19.624 16.402 20.019 15.76 20.539 15.222C21.061 14.683 21.677 14.257 22.398 13.945C23.117 13.634 23.911 13.478 24.79 13.478C25.76 13.478 26.61 13.664 27.339 14.045C28.064 14.419 28.659 14.929 29.128 15.564C29.595 16.201 29.927 16.927 30.134 17.742C30.341 18.556 30.415 19.405 30.355 20.296ZM27.204 18.311H22.08C22.094 18.087 22.142 17.834 22.223 17.553C22.303 17.269 22.441 17 22.645 16.746C22.85 16.495 23.118 16.285 23.444 16.113C23.776 15.941 24.193 15.856 24.696 15.856C25.47 15.856 26.104 16.082 26.478 16.494C26.854 16.912 27.128 17.506 27.204 18.311ZM21.436 12.057V10.495H27.855V12.057H21.436Z" fill="#F1F1F1"/>
</svg>
