<svg width="35" height="35" viewBox="0 0 35 35" fill="none" xmlns="http://www.w3.org/2000/svg">
<path fill-rule="evenodd" clip-rule="evenodd" d="M17.5 35C27.165 35 35 27.165 35 17.5C35 7.835 27.165 0 17.5 0C7.835 0 0 7.835 0 17.5C0 27.165 7.835 35 17.5 35ZM19.077 19.308V31.09H14.334V19.307H10.37V14.716H14.334V11.329C14.334 7.4 16.734 5.259 20.241 5.259C21.92 5.259 23.363 5.384 23.783 5.44V9.548L21.351 9.55C19.445 9.55 19.077 10.455 19.077 11.784V14.717H23.624L23.031 19.308H19.077Z" fill="#F1F1F1"/>
</svg>
