<svg width="35" height="35" viewBox="0 0 35 35" fill="none" xmlns="http://www.w3.org/2000/svg">
<path d="M17.0149 0.971252C7.61833 0.971252 0 8.58861 0 17.9842C0 24.9521 4.18931 30.9361 10.185 33.5679C10.1364 32.3799 10.1762 30.9536 10.4815 29.6615C10.8082 28.28 12.67 20.3904 12.67 20.3904C12.67 20.3904 12.1265 19.3044 12.1265 17.6983C12.1265 15.1764 13.5887 13.2942 15.4078 13.2942C16.9556 13.2942 17.7022 14.455 17.7022 15.8482C17.7022 17.4038 16.7106 19.7313 16.1992 21.8857C15.7733 23.6901 17.1053 25.1621 18.8854 25.1621C22.1074 25.1621 24.2803 21.0233 24.2803 16.1165C24.2803 12.3871 21.7681 9.59584 17.2006 9.59584C12.04 9.59584 8.82583 13.4449 8.82583 17.745C8.82583 19.2267 9.26139 20.2718 9.94681 21.0817C10.2608 21.454 10.3046 21.6028 10.1918 22.0315C10.1092 22.3436 9.9225 23.0981 9.84472 23.3956C9.73097 23.8263 9.38194 23.9818 8.99306 23.8214C6.61597 22.8511 5.50861 20.2475 5.50861 17.3221C5.50861 12.4882 9.58514 6.69278 17.6692 6.69278C24.1656 6.69278 28.4394 11.3925 28.4394 16.4383C28.4394 23.1117 24.7304 28.0992 19.2597 28.0992C17.4232 28.0992 15.6946 27.1056 15.1035 25.9768C15.1035 25.9768 14.1157 29.8968 13.9076 30.6551C13.546 31.9676 12.8401 33.2772 12.1946 34.299C13.7249 34.7511 15.3397 34.9971 17.0168 34.9971C26.4114 34.9971 34.0288 27.3797 34.0288 17.9822C34.0268 8.58861 26.4094 0.971252 17.0149 0.971252Z" fill="#E71E27"/>
</svg>
