<svg width="35" height="35" viewBox="0 0 35 35" fill="none" xmlns="http://www.w3.org/2000/svg">
<path d="M35 17.5C35 27.165 27.165 35 17.5 35C7.835 35 0 27.165 0 17.5C0 7.836 7.835 0 17.5 0C27.165 0 35 7.836 35 17.5Z" fill="#F1F1F1"/>
<path fill-rule="evenodd" clip-rule="evenodd" d="M4.62402 9.43201V25.272H12.301C13.011 25.272 13.704 25.182 14.371 25.006C15.047 24.828 15.647 24.555 16.173 24.184C16.694 23.816 17.116 23.338 17.426 22.75C17.733 22.167 17.888 21.477 17.888 20.673C17.888 19.682 17.653 18.837 17.171 18.131C16.692 17.429 15.97 16.936 14.996 16.655C15.71 16.317 16.247 15.881 16.611 15.349C16.972 14.816 17.153 14.15 17.153 13.352C17.153 12.616 17.034 11.992 16.793 11.495C16.544 10.99 16.199 10.588 15.758 10.286C15.31 9.98501 14.779 9.76401 14.159 9.63301C13.533 9.49701 12.849 9.43201 12.091 9.43201H4.62402ZM8.11203 15.83V12.13H11.374C11.683 12.13 11.983 12.152 12.271 12.208C12.562 12.258 12.816 12.351 13.039 12.485C13.265 12.616 13.441 12.8 13.576 13.037C13.706 13.274 13.771 13.579 13.771 13.946C13.771 14.61 13.576 15.093 13.175 15.388C12.769 15.684 12.257 15.83 11.64 15.83H8.11203ZM8.11203 18.212V22.574V22.575H11.834C12.177 22.575 12.503 22.543 12.811 22.475C13.123 22.407 13.4 22.299 13.633 22.139C13.865 21.986 14.06 21.775 14.2 21.507C14.34 21.241 14.408 20.897 14.408 20.48C14.408 19.664 14.177 19.085 13.722 18.732C13.264 18.385 12.653 18.212 11.903 18.212H8.11203Z" fill="#202020"/>
<path fill-rule="evenodd" clip-rule="evenodd" d="M30.355 20.296H22.08C22.08 21.203 22.385 22.061 22.856 22.519C23.329 22.981 24.011 23.212 24.895 23.212C25.53 23.212 26.079 23.051 26.539 22.732C26.996 22.41 27.275 22.069 27.383 21.715H30.156C29.71 23.094 29.034 24.08 28.11 24.674C27.198 25.27 26.087 25.567 24.79 25.567C23.886 25.567 23.073 25.42 22.344 25.133C21.614 24.841 21.003 24.432 20.491 23.9C19.991 23.364 19.603 22.732 19.327 21.987C19.053 21.249 18.915 20.431 18.915 19.544C18.915 18.686 19.057 17.887 19.339 17.145C19.624 16.402 20.019 15.76 20.539 15.222C21.061 14.683 21.677 14.257 22.398 13.945C23.117 13.634 23.911 13.478 24.79 13.478C25.76 13.478 26.61 13.664 27.339 14.045C28.064 14.419 28.659 14.929 29.128 15.564C29.595 16.201 29.927 16.927 30.134 17.742C30.341 18.556 30.415 19.405 30.355 20.296ZM22.08 18.311H27.204C27.128 17.506 26.854 16.912 26.478 16.494C26.104 16.082 25.47 15.856 24.696 15.856C24.193 15.856 23.776 15.941 23.444 16.113C23.118 16.285 22.85 16.495 22.645 16.746C22.441 17 22.303 17.269 22.223 17.553C22.142 17.834 22.094 18.087 22.08 18.311Z" fill="#202020"/>
<path d="M21.436 10.495V12.057H27.855V10.495H21.436Z" fill="#202020"/>
</svg>
